<?xml version="1.0" encoding="utf-8"?>
<!-- Generator: Adobe Illustrator 15.0.0, SVG Export Plug-In . SVG Version: 6.00 Build 0)  -->
<!DOCTYPE svg PUBLIC "-//W3C//DTD SVG 1.1//EN" "http://www.w3.org/Graphics/SVG/1.1/DTD/svg11.dtd">
<svg version="1.1" id="Livello_1" xmlns="http://www.w3.org/2000/svg" xmlns:xlink="http://www.w3.org/1999/xlink" x="0px" y="0px"
	 width="512px" height="271.739px" viewBox="0 0 512 271.739" enable-background="new 0 0 512 271.739" xml:space="preserve">
<path fill="#CDA434" d="M491.661,112.123l-257.284,1.778c5.457-8.637,8.76-18.563,8.848-29.241
	c0.255-32.233-27.619-58.17-62.261-57.933c-32.447,0.226-59.007,23.418-62.497,52.829c-6.732-2.259-13.917-3.663-21.527-3.612
	c-34.641,0.241-62.933,26.566-63.193,58.801c-0.255,32.234,27.619,58.171,62.26,57.933c7.608-0.053,14.821-1.555,21.585-3.908
	c3.024,29.363,29.215,52.191,61.662,51.968c34.641-0.241,62.933-26.567,63.193-58.8c0.083-10.678-3.063-20.559-8.383-29.123
	l110.926-0.77l-0.313,38.912l41.819-0.291l0.311-38.91l20.91-0.145l-0.311,38.909l41.815-0.289l0.312-38.91l41.815-0.288
	L491.661,112.123z M117.385,134.167c-0.088,10.746-9.517,19.52-21.066,19.602c-11.547,0.079-20.839-8.565-20.752-19.312
	c0.085-10.748,9.514-19.521,21.065-19.601C108.178,114.775,117.47,123.422,117.385,134.167z M200.629,182.228
	c-0.086,10.745-9.517,19.521-21.064,19.601c-11.549,0.078-20.839-8.565-20.752-19.311c0.086-10.748,9.515-19.521,21.063-19.6
	C191.425,162.836,200.714,171.479,200.629,182.228z M201.406,84.951c-0.086,10.744-9.517,19.52-21.064,19.6
	c-11.548,0.079-20.839-8.565-20.753-19.311c0.086-10.747,9.516-19.521,21.064-19.6C192.201,65.56,201.492,74.204,201.406,84.951z"/>
</svg>
